<svg preserveAspectRatio="none" width="100%" height="100%" overflow="visible" style="display: block;" viewBox="0 0 27.8774 14.4593" fill="none" xmlns="http://www.w3.org/2000/svg">
<g id="Group">
<path id="Vector" d="M0 7.31667V0.173996H0.688361H1.37672V7.31667V14.4593H0.688361H0V7.31667Z" fill="var(--fill-0, #CEBC6A)"/>
<path id="Vector_2" d="M17.3871 14.4059C17.3737 14.3747 17.3693 11.1527 17.3737 7.24984L17.3871 0.151673H18.031H18.675L18.6972 1.28649L18.7194 2.42131L18.8704 2.15429C19.6786 0.712406 21.2818 -0.088641 23.156 0.00926476C25.4431 0.133872 27.1707 1.60691 27.7036 3.88989C27.8368 4.44618 27.9034 5.26947 27.8679 5.82576C27.6858 8.66947 25.9938 10.5564 23.4002 10.819C22.2189 10.9391 21.0731 10.6676 20.1583 10.0535C19.7452 9.77314 19.1946 9.19906 18.9281 8.76293L18.6972 8.38911V11.4242V14.4593H18.0532C17.578 14.4593 17.4004 14.4459 17.3871 14.4059ZM23.5468 9.56398C24.6482 9.32366 25.4653 8.69618 25.9982 7.69042C26.5312 6.68911 26.6599 5.26057 26.3313 4.04565C26.0426 2.98204 25.372 2.09644 24.4883 1.63361C23.8976 1.32209 23.5512 1.23754 22.774 1.21084C22.2011 1.18858 22.0635 1.19748 21.686 1.28649C21.0509 1.43335 20.4691 1.74487 20.0028 2.18989C19.3456 2.81293 18.9947 3.46267 18.7815 4.46843C18.6972 4.85115 18.7105 6.07497 18.7993 6.4755C19.1724 8.13544 20.3093 9.30141 21.8547 9.60403C22.2278 9.67968 23.1338 9.65743 23.5468 9.56398Z" fill="var(--fill-0, #CEBC6A)"/>
<path id="Vector_3" d="M8.23823 10.8238C7.38111 10.7437 6.3952 10.3655 5.73792 9.86258C4.61434 8.99033 3.96595 7.69975 3.81051 6.02201C3.67728 4.55342 4.0148 3.13824 4.76533 2.02122C5.00071 1.6741 5.58693 1.08667 5.94221 0.846351C7.5854 -0.261764 9.9125 -0.284015 11.498 0.792948C12.0353 1.15787 12.5638 1.7364 12.8391 2.26598L12.9457 2.46625L12.9591 1.32253L12.9679 0.174362H13.6341H14.3003V5.44792V10.7259L13.6341 10.717L12.9679 10.7126L12.9635 9.57331C12.9635 8.66991 12.9502 8.4474 12.9102 8.5097C12.515 9.12384 12.3906 9.29295 12.1463 9.53771C11.8044 9.87148 11.3025 10.2275 10.9162 10.41C10.1701 10.7571 9.17529 10.9084 8.23823 10.8238ZM9.85033 9.58666C11.0361 9.33745 11.9421 8.62986 12.4794 7.53954C12.8614 6.76075 13.0168 5.85735 12.928 4.94059C12.7636 3.3296 11.9776 2.12803 10.6897 1.53169C10.1656 1.29138 9.71265 1.19792 9.03318 1.19792C7.85186 1.19792 6.98585 1.56284 6.23088 2.37279C5.52919 3.12934 5.1517 4.1974 5.1517 5.44792C5.1517 6.44923 5.38264 7.30368 5.84895 8.02462C6.35079 8.80342 7.19902 9.3775 8.14941 9.57776C8.55798 9.66677 9.45507 9.67122 9.85033 9.58666Z" fill="var(--fill-0, #CEBC6A)"/>
</g>
</svg>
