<svg preserveAspectRatio="none" width="100%" height="100%" overflow="visible" style="display: block;" viewBox="0 0 131.877 34.3515" fill="none" xmlns="http://www.w3.org/2000/svg">
<g id="Group">
<path id="Vector" d="M0.848465 34.2625C0.555357 34.1468 0.280012 33.8664 0.129017 33.5326C0.0179906 33.2923 0.00466752 33.2078 0.000226475 32.7939C0.000226475 32.3711 0.0135496 32.2999 0.124576 32.0596C0.266689 31.7525 0.502064 31.4944 0.755204 31.3564C0.892876 31.2808 1.00834 31.2585 1.26592 31.2585C1.81217 31.263 2.16301 31.4944 2.41615 32.0373C2.5183 32.2554 2.53162 32.3355 2.53162 32.7939C2.53162 33.3546 2.46945 33.5638 2.20298 33.902C1.90099 34.2847 1.29701 34.4449 0.848465 34.2625Z" fill="var(--fill-0, #FCFCFC)"/>
<path id="Vector_2" d="M6.56807 32.3844C6.57251 31.2985 6.55918 26.2296 6.54142 21.1118C6.5281 15.9985 6.5281 11.1611 6.5503 10.3645C6.62136 7.5875 6.72794 5.80295 6.86562 5.05531C6.94555 4.61473 7.40298 3.50661 7.69609 3.04379C8.89961 1.16578 10.9292 0.119966 13.5894 0.00870932C16.063 -0.0891964 18.8342 0.70295 20.9393 2.11368C21.1702 2.26944 21.4411 2.46525 21.5388 2.54981L21.7165 2.70112L22.1339 2.26054C23.3508 0.965515 24.9451 0.226772 26.9436 0.0398611C29.1863 -0.173751 31.7488 0.480437 33.7561 1.77991C33.9782 1.92677 34.1736 2.04248 34.1869 2.04248C34.2047 2.04248 34.218 1.68201 34.218 1.24143V0.440385H35.5503H36.8826V12.5451V24.6498H35.5503H34.218V14.4142V4.1786L33.9471 4.00059C33.5652 3.75583 32.8901 3.41316 32.375 3.20845C29.6482 2.12258 27.059 2.12258 25.2249 3.2129C24.7675 3.47991 24.0747 4.1341 23.8082 4.54798C23.2309 5.43803 23.1065 5.84745 22.9866 7.27154C22.809 9.35426 22.7956 11.17 22.8756 20.9917L22.9067 24.6498H21.6676H20.4286L20.4241 22.2333C20.4241 20.9071 20.4152 17.6095 20.4019 14.9037C20.3841 9.60347 20.4019 8.61106 20.5662 6.604C20.6373 5.69614 20.7217 5.13986 20.846 4.69928L20.9304 4.39667L20.7883 4.29431C20.0999 3.77808 18.9275 3.2129 17.9283 2.91473C15.3613 2.14483 12.7678 2.34955 11.1157 3.45321C10.223 4.04955 9.53912 4.98855 9.26378 6.00321C9.0284 6.86656 9.03728 6.15452 9.03728 20.7914V34.3514H7.80268H6.56807V32.3844Z" fill="var(--fill-0, #FCFCFC)"/>
<path id="Vector_3" d="M76.0794 34.2804C75.7774 34.1869 75.4354 33.8353 75.2978 33.4838C75.1512 33.101 75.1512 32.478 75.2978 32.1042C75.5554 31.4366 76.2348 31.0895 76.8655 31.3076C77.8114 31.628 78.0823 33.2034 77.3184 33.9777C76.972 34.3293 76.5679 34.4272 76.0794 34.2804Z" fill="var(--fill-0, #FCFCFC)"/>
<path id="Vector_4" d="M81.7375 28.7305C81.6931 17.7117 81.7198 9.26955 81.8042 8.42845C81.813 8.33055 81.8308 7.93003 81.8486 7.5384C81.8797 6.7151 81.9862 5.39783 82.0484 5.05961C82.1639 4.44102 82.6657 3.28395 83.0787 2.67427C83.3763 2.23814 84.0602 1.55725 84.4999 1.25018C86.9336 -0.418664 90.7795 -0.405313 94.1414 1.29024C94.9274 1.68631 95.4559 2.02898 96.1088 2.56301L96.2908 2.70987L96.4107 2.53631C96.4774 2.4384 96.7394 2.15804 96.9925 1.91327C97.9029 1.02767 99.0043 0.453587 100.323 0.177671C102.699 -0.311858 105.51 0.275576 107.673 1.70856C107.949 1.89102 108.18 2.04233 108.188 2.04233C108.197 2.04233 108.206 1.68186 108.206 1.24128V0.440236H109.494H110.782V12.5449V24.6497H109.494H108.206V14.4052V4.1562L107.82 3.91144C107.078 3.44861 106.159 3.03919 105.253 2.77662C102.677 2.02898 100.234 2.42505 98.8533 3.80908C98.3337 4.32976 97.7964 5.23762 97.6587 5.83395C97.5699 6.22558 97.4766 7.07558 97.4055 8.13919C97.3434 9.08264 97.3256 16.4033 97.3745 21.2675C97.3878 22.7227 97.3922 24.08 97.3833 24.2847L97.3611 24.6497H96.202H95.0385L95.0163 20.9203C94.9807 14.7033 94.9941 9.41641 95.0518 8.18369C95.1406 6.39023 95.2694 5.20647 95.4382 4.64128C95.5181 4.37427 95.5225 4.38317 94.9408 3.99599C93.5285 3.06589 91.7343 2.50961 89.9979 2.4651C89.2473 2.4473 88.7366 2.49181 88.0882 2.63867C86.0143 3.10594 84.713 4.34757 84.2423 6.31458C84.1624 6.63055 84.1579 7.31589 84.149 20.502L84.1357 34.3512H82.9455H81.7597L81.7375 28.7305Z" fill="var(--fill-0, #FCFCFC)"/>
<path id="Vector_5" d="M62.926 25.09C60.7099 24.9254 58.4539 24.1421 56.562 22.8827C56.26 22.678 56.0068 22.5133 56.0024 22.5133C55.998 22.5133 55.8159 22.6958 55.5983 22.9183C54.4747 24.0709 52.9869 24.7874 51.2283 25.0233C50.5843 25.1123 49.0611 25.09 48.386 24.9877C47.7243 24.8853 46.6585 24.6139 46.0944 24.4047C45.2729 24.0976 44.3091 23.6125 43.7363 23.2165L43.5453 23.0874V23.8929V24.694L42.2041 24.6851L40.8585 24.6717L40.8451 13.0031L40.8363 1.33009H42.1908H43.5453V11.2052V21.0848L43.8117 21.245C44.8465 21.8725 46.3298 22.4065 47.7865 22.6735C48.426 22.7892 50.1091 22.7937 50.6687 22.678C52.4096 22.322 53.6042 21.4497 54.3548 19.9945C54.6079 19.5005 54.7234 18.7885 54.8344 16.995C54.8966 15.9358 54.9099 9.83008 54.8611 4.77904C54.8389 3.01673 54.8389 1.52145 54.8522 1.45469L54.8788 1.33009H56.0868H57.2903L57.3125 4.61438C57.3436 9.43401 57.3392 15.4508 57.3036 16.5722C57.2415 18.3568 57.1127 19.7097 56.935 20.4128C56.8729 20.6487 56.824 20.8489 56.824 20.8534C56.824 20.9068 57.69 21.4141 58.1785 21.65C59.5952 22.3353 61.3494 22.7403 62.886 22.7358C65.7549 22.7269 67.7667 21.5209 68.4329 19.407C68.6905 18.5837 68.6816 18.9665 68.6816 9.77668V1.33009H69.9295H71.1819L71.1508 1.58375C71.0975 2.00653 71.0842 4.61883 71.1242 5.66909C71.1464 6.20757 71.1997 7.48925 71.2441 8.51726C71.3373 10.8091 71.3506 15.3395 71.2663 16.461C71.0353 19.4827 70.5779 21.3696 69.8007 22.4955C69.1967 23.3678 68.0421 24.1777 66.7231 24.6406C65.675 25.0099 64.1917 25.1879 62.926 25.09Z" fill="var(--fill-0, #FCFCFC)"/>
<path id="Vector_6" d="M115.135 23.9374V22.7803H115.903C117.409 22.7803 127.503 22.7225 127.512 22.7136C127.521 22.7091 127.161 22.1618 126.713 21.4987C125.887 20.2615 125.571 19.7942 123.728 17.0618C123.151 16.2073 122.289 14.9256 121.814 14.2136C121.334 13.506 120.642 12.4735 120.273 11.9217C119.9 11.3699 118.501 9.29605 117.164 7.30679L114.735 3.69762V2.51385V1.33009H123.306H131.877V2.5094V3.68872L128.516 3.69317C126.664 3.69762 125.132 3.70207 125.105 3.71098C125.083 3.71543 123.475 3.72433 121.543 3.72433C119.607 3.72878 118.021 3.74658 118.021 3.76883C118.021 3.78663 119.802 6.42563 121.978 9.62982C124.155 12.8385 126.206 15.8602 126.539 16.3497C126.872 16.8392 127.987 18.4858 129.022 20.0078L130.9 22.7803V23.9374V25.0945H123.018H115.135V23.9374Z" fill="var(--fill-0, #FCFCFC)"/>
<path id="Vector_7" d="M76.4211 24.6139L75.3419 24.605V12.9675V1.33009H76.4522H77.5625V12.9631C77.5625 19.3625 77.5491 24.605 77.5314 24.6139C77.5092 24.6228 77.0118 24.6228 76.4211 24.6139Z" fill="var(--fill-0, #FCFCFC)"/>
<path id="Vector_8" d="M0.15552 12.9675V1.33009H1.26578H2.37604V12.9675V24.605H1.26578H0.15552V12.9675Z" fill="var(--fill-0, #FCFCFC)"/>
</g>
</svg>
