<svg width="174" height="51" viewBox="0 0 174 51" fill="none" xmlns="http://www.w3.org/2000/svg" role="img" aria-label="Ilumiluz Lab">
  <g transform="translate(91.4718,50.388) scale(1,-1)">
    <path d="M24.8387 48.337C22.6404 48.159 20.4865 47.5271 18.5546 46.4946C17.7197 46.0451 17.2623 45.925 16.4451 45.9205C15.7701 45.9161 15.4148 45.9828 14.7175 46.2365C14.158 46.4367 13.4074 46.6326 12.7146 46.7483C11.8975 46.8862 10.2721 46.8862 9.45047 46.7483C8.11816 46.5168 7.03454 46.1519 5.99534 45.5778C3.77038 44.3496 2.09166 42.4449 1.14572 40.0729C0.883701 39.4053 0.639444 38.4708 0.497331 37.5718C0.417392 37.0689 0.417392 35.3556 0.49289 34.8794C0.612798 34.1629 0.732706 33.5888 0.865937 33.1483C1.32336 31.5907 2.08722 30.2378 3.19304 29.0095C4.12122 27.9815 4.32551 27.6922 4.38324 27.3451C4.43209 27.0203 4.28998 26.6687 3.96134 26.3082C2.3981 24.6127 1.08799 22.1161 0.484008 19.704C-0.532991 15.6142 0.0621087 11.4265 2.18049 7.79958C4.4765 3.8611 8.45568 1.07079 12.9589 0.238587C14.3401 -0.015078 16.3119 -0.0729314 17.6442 0.0961785C19.8292 0.380995 21.7966 1.01293 23.462 1.96974C23.644 2.07209 23.875 2.2056 23.9771 2.26346C24.0748 2.31686 24.4301 2.55272 24.7632 2.77969C27.9474 4.97366 30.279 8.36921 31.1627 12.1163C31.3848 13.0642 31.4869 13.7718 31.5891 15.0535C31.6779 16.1305 31.8422 16.6734 32.2863 17.3498C32.6727 17.9506 33.1079 18.3155 34.1649 18.9475C35.3107 19.6284 36.3676 20.465 37.3402 21.4663C39.7961 23.9941 41.2172 26.9402 41.7413 30.5849C41.8035 31.0166 41.8257 31.426 41.8257 32.4318C41.8257 33.1438 41.8123 33.8648 41.7946 34.0339C41.7502 34.47 41.5992 35.4357 41.5148 35.8362C41.3549 36.5928 40.9241 37.9901 40.6621 38.5954C40.6044 38.7289 40.5111 38.9425 40.4578 39.0627C39.5296 41.1899 37.8509 43.3572 35.959 44.8792C35.4927 45.253 34.3425 46.0718 34.2848 46.0718C34.2715 46.0718 34.1293 46.1519 33.9695 46.2498C33.663 46.4367 32.5572 46.9975 32.3218 47.0865C32.2508 47.1132 32.042 47.1933 31.8644 47.2689C31.5402 47.4069 30.5232 47.7451 30.0791 47.8697C29.7594 47.9543 28.6002 48.1812 28.1473 48.248C27.2058 48.3815 25.8335 48.4171 24.8387 48.337ZM27.2013 48.2079C28.1517 48.1456 29.2842 47.9543 30.2345 47.6873C33.6497 46.7394 36.7806 44.5498 38.7791 41.7106C38.979 41.4302 39.1566 41.181 39.1744 41.1543C39.3209 40.9585 39.8538 40.0106 40.1025 39.5032C40.8309 38.0391 41.3238 36.4504 41.5548 34.8349C41.5947 34.5679 41.6391 34.2742 41.648 34.1896C41.6613 34.1051 41.6836 33.5443 41.6969 32.9436C41.7368 31.2569 41.6036 30.0286 41.2039 28.5155C40.2447 24.8485 37.9309 21.5998 34.7644 19.4726C33.8673 18.8674 33.2811 18.636 32.6327 18.636C32.273 18.636 32.2108 18.6493 31.9976 18.7695C31.6734 18.943 31.3981 19.2679 31.1849 19.704C31.0917 19.9043 31.0117 20.0912 31.0117 20.1179C31.0117 20.2203 30.5587 21.5286 30.3678 21.9737C29.2486 24.5949 27.5122 26.82 25.2606 28.5155C24.4878 29.0941 23.8128 29.508 22.7159 30.0731C21.7255 30.5849 21.3081 31.0655 21.1704 31.8443C21.1038 32.2271 21.1482 32.6498 21.3125 33.1883C21.4191 33.5443 21.4413 33.6467 21.5656 34.3009C21.801 35.5203 21.7744 37.2559 21.5035 38.4396C21.2903 39.3519 21.0327 40.0907 20.6375 40.9006C20.1223 41.9642 19.5405 42.7786 18.5768 43.7755C18.2215 44.1449 17.8884 44.5409 17.8307 44.6477C17.6664 44.9593 17.6575 45.2129 17.7907 45.5066C18.0439 46.0629 18.7811 46.548 20.26 47.1399C22.4672 48.021 24.7232 48.3682 27.2013 48.2079ZM12.1417 46.6949C13.0211 46.6059 13.9626 46.3833 14.4422 46.1475C15.1439 45.8093 15.4059 45.4354 15.2993 44.9237C15.2061 44.4608 14.7442 43.6197 14.3534 43.1881C14.0736 42.881 13.3675 41.9954 13.1054 41.6216C12.1862 40.3132 11.369 38.6176 10.9293 37.1268C10.4986 35.6627 10.3564 34.8082 10.2721 33.2239C10.2454 32.7166 10.1921 32.147 10.1566 31.9645C10.05 31.4616 9.83684 31.0522 9.47268 30.6606C9.08186 30.2378 8.87758 30.0909 8.17145 29.6993C7.64297 29.4056 7.20774 29.1297 6.52382 28.658C6.15078 28.3998 5.84434 28.2396 5.54679 28.1506C5.28033 28.0661 4.66747 28.0616 4.50315 28.1373C4.08569 28.3286 3.95246 28.4221 3.5883 28.7826C2.32704 30.0242 1.33225 31.782 0.87926 33.5666C0.639444 34.5145 0.57727 35.0619 0.57727 36.2367C0.581711 37.4294 0.630562 37.8255 0.901466 38.8802C1.25675 40.2731 1.9762 41.6928 2.91326 42.8587C3.24189 43.2682 4.01019 44.0425 4.43653 44.3852C5.98202 45.6446 7.81173 46.4189 9.82796 46.6726C10.4053 46.7438 11.5333 46.7527 12.1417 46.6949ZM17.3777 44.265C18.2126 44.0336 19.0076 43.2993 19.9091 41.942C20.1489 41.5771 20.7529 40.4467 20.7529 40.3621C20.7529 40.3443 20.7929 40.2464 20.8373 40.1396C21.0727 39.6234 21.3569 38.6087 21.4946 37.7943C21.5523 37.4383 21.5701 37.0645 21.5745 36.2145C21.5745 35.0886 21.5568 34.9017 21.3702 33.9938C21.0949 32.6632 20.3355 31.7865 19.243 31.5373C18.8744 31.4572 18.3592 31.4661 17.3999 31.5818C17.0136 31.6307 16.4273 31.6574 15.8456 31.6619C14.7042 31.6619 13.9892 31.5951 12.6791 31.3593C11.2535 31.1011 10.7339 31.3148 10.4897 32.2627C10.3254 32.9169 10.4275 34.5501 10.7162 35.7695C11.0892 37.3582 11.4267 38.3373 12.0263 39.5344C12.8923 41.2655 14.1757 42.9967 15.1439 43.7265C15.9211 44.314 16.6005 44.4786 17.3777 44.265ZM17.2667 31.4705C18.3148 31.3815 19.0875 31.0566 19.314 30.6161C19.3984 30.4603 19.4028 30.1577 19.3273 29.9218C19.0431 29.0407 17.5865 27.7011 16.001 26.8556C15.4725 26.5752 14.6376 26.2326 14.3401 26.1703C13.9581 26.0946 13.1188 26.0768 12.8479 26.1391C12.3194 26.2593 11.8575 26.5841 11.5422 27.0603C10.7339 28.2841 10.7384 29.7127 11.56 30.5404C12.2483 31.2302 13.3897 31.5017 15.6901 31.515C16.263 31.515 16.9736 31.4972 17.2667 31.4705ZM22.1518 30.1176C22.6093 29.9841 23.0401 29.7883 23.6396 29.4367C25.718 28.2218 27.5033 26.5485 28.8223 24.5771C29.3152 23.8339 29.8615 22.8459 30.1235 22.2184C30.199 22.036 30.2878 21.8268 30.3234 21.7511C30.4832 21.3996 30.7053 20.7053 30.7719 20.3582C31.1494 18.409 30.1813 17.2386 27.9519 16.936C27.148 16.8247 24.8564 16.8292 24.1059 16.936C22.4627 17.1763 21.1881 17.5278 19.8869 18.093C18.0661 18.8852 16.5606 19.8909 15.1616 21.2616C13.2032 23.1752 12.497 24.497 13.0166 25.2669C13.1809 25.5027 13.6206 25.7875 14.0159 25.9077C15.8633 26.4773 17.4799 27.4519 18.7056 28.7425C18.9143 28.9606 19.203 29.2676 19.3496 29.4189C19.7315 29.8284 20.1489 30.082 20.6419 30.2111C20.9794 30.3045 21.6678 30.26 22.1518 30.1176ZM9.84128 29.6326C10.312 29.4056 10.6762 28.8493 10.9116 28.0038C10.9782 27.7723 11.0581 27.5053 11.0981 27.4119C11.1336 27.3184 11.1736 27.0959 11.1869 26.9223C11.2358 26.3527 11.0848 26.0545 10.6629 25.8632C10.4541 25.7742 10.3609 25.7608 9.85016 25.7608C9.37941 25.7608 9.17957 25.7831 8.76211 25.881C8.14925 26.0278 7.28768 26.3171 6.91908 26.4996C6.32398 26.7933 5.96425 27.176 5.96425 27.5098C5.96425 27.9059 6.38171 28.4265 7.04343 28.8627C7.55415 29.1964 8.06487 29.508 8.21586 29.5658C8.83761 29.8195 9.41494 29.8462 9.84128 29.6326ZM5.67558 26.8244C5.88431 26.7933 6.1863 26.6865 6.586 26.4996C7.65185 26.0056 8.63332 25.7252 9.82796 25.5739C10.4808 25.4938 10.7517 25.4226 11.1958 25.2179C11.8975 24.8975 12.4571 24.3724 13.1676 23.3755C13.3986 23.0462 13.6339 22.7258 13.6872 22.6635C13.7405 22.6011 13.8782 22.4409 13.9937 22.3074C15.0417 21.0836 16.0632 20.1758 17.3733 19.308C17.7952 19.0276 17.8618 18.9875 18.4658 18.6449C19.6293 17.9951 21.3924 17.3187 22.5515 17.0828C24.0393 16.7802 24.5411 16.7268 26.0156 16.7268C27.3301 16.7224 27.6499 16.7491 28.7424 16.9315C29.6839 17.0873 30.3456 16.9938 30.7675 16.6422C31.145 16.3263 31.3093 15.9569 31.3937 15.2538C31.4514 14.7642 31.4247 14.1902 31.3226 13.6072C31.0828 12.2632 31.0695 12.1964 30.8652 11.471C29.4751 6.56241 25.5981 2.50822 20.7751 0.923927C19.6515 0.554555 18.8033 0.367644 17.5332 0.202985C16.7071 0.100629 14.7664 0.100629 13.9803 0.207435C12.0307 0.474451 10.4231 0.959529 8.81096 1.76503C7.2788 2.53047 5.96425 3.47838 4.74297 4.70665C3.50836 5.94382 2.63347 7.14094 1.85629 8.66738C0.941435 10.4564 0.412951 12.2587 0.190899 14.3637C0.133165 14.8933 0.133165 16.7046 0.190899 17.2831C0.390746 19.308 0.892583 21.0569 1.78079 22.837C2.57574 24.4258 3.77038 26.0946 4.44986 26.5574C4.76073 26.771 5.15154 26.9001 5.38692 26.8689C5.44909 26.86 5.57788 26.8422 5.67558 26.8244Z" fill="#ffffff"/>
  </g>
  <g transform="translate(4.2456,44.7627) scale(1,-1)">
    <path d="M0.848465 34.2625C0.555357 34.1468 0.280012 33.8664 0.129017 33.5326C0.0179906 33.2923 0.00466752 33.2078 0.000226475 32.7939C0.000226475 32.3711 0.0135496 32.2999 0.124576 32.0596C0.266689 31.7525 0.502064 31.4944 0.755204 31.3564C0.892876 31.2808 1.00834 31.2585 1.26592 31.2585C1.81217 31.263 2.16301 31.4944 2.41615 32.0373C2.5183 32.2554 2.53162 32.3355 2.53162 32.7939C2.53162 33.3546 2.46945 33.5638 2.20298 33.902C1.90099 34.2847 1.29701 34.4449 0.848465 34.2625Z" fill="#FCFCFC"/>
    <path d="M6.56807 32.3844C6.57251 31.2985 6.55918 26.2296 6.54142 21.1118C6.5281 15.9985 6.5281 11.1611 6.5503 10.3645C6.62136 7.5875 6.72794 5.80295 6.86562 5.05531C6.94555 4.61473 7.40298 3.50661 7.69609 3.04379C8.89961 1.16578 10.9292 0.119966 13.5894 0.00870932C16.063 -0.0891964 18.8342 0.70295 20.9393 2.11368C21.1702 2.26944 21.4411 2.46525 21.5388 2.54981L21.7165 2.70112L22.1339 2.26054C23.3508 0.965515 24.9451 0.226772 26.9436 0.0398611C29.1863 -0.173751 31.7488 0.480437 33.7561 1.77991C33.9782 1.92677 34.1736 2.04248 34.1869 2.04248C34.2047 2.04248 34.218 1.68201 34.218 1.24143V0.440385H35.5503H36.8826V12.5451V24.6498H35.5503H34.218V14.4142V4.1786L33.9471 4.00059C33.5652 3.75583 32.8901 3.41316 32.375 3.20845C29.6482 2.12258 27.059 2.12258 25.2249 3.2129C24.7675 3.47991 24.0747 4.1341 23.8082 4.54798C23.2309 5.43803 23.1065 5.84745 22.9866 7.27154C22.809 9.35426 22.7956 11.17 22.8756 20.9917L22.9067 24.6498H21.6676H20.4286L20.4241 22.2333C20.4241 20.9071 20.4152 17.6095 20.4019 14.9037C20.3841 9.60347 20.4019 8.61106 20.5662 6.604C20.6373 5.69614 20.7217 5.13986 20.846 4.69928L20.9304 4.39667L20.7883 4.29431C20.0999 3.77808 18.9275 3.2129 17.9283 2.91473C15.3613 2.14483 12.7678 2.34955 11.1157 3.45321C10.223 4.04955 9.53912 4.98855 9.26378 6.00321C9.0284 6.86656 9.03728 6.15452 9.03728 20.7914V34.3514H7.80268H6.56807V32.3844Z" fill="#FCFCFC"/>
    <path d="M76.0794 34.2804C75.7774 34.1869 75.4354 33.8353 75.2978 33.4838C75.1512 33.101 75.1512 32.478 75.2978 32.1042C75.5554 31.4366 76.2348 31.0895 76.8655 31.3076C77.8114 31.628 78.0823 33.2034 77.3184 33.9777C76.972 34.3293 76.5679 34.4272 76.0794 34.2804Z" fill="#FCFCFC"/>
    <path d="M81.7375 28.7305C81.6931 17.7117 81.7198 9.26955 81.8042 8.42845C81.813 8.33055 81.8308 7.93003 81.8486 7.5384C81.8797 6.7151 81.9862 5.39783 82.0484 5.05961C82.1639 4.44102 82.6657 3.28395 83.0787 2.67427C83.3763 2.23814 84.0602 1.55725 84.4999 1.25018C86.9336 -0.418664 90.7795 -0.405313 94.1414 1.29024C94.9274 1.68631 95.4559 2.02898 96.1088 2.56301L96.2908 2.70987L96.4107 2.53631C96.4774 2.4384 96.7394 2.15804 96.9925 1.91327C97.9029 1.02767 99.0043 0.453587 100.323 0.177671C102.699 -0.311858 105.51 0.275576 107.673 1.70856C107.949 1.89102 108.18 2.04233 108.188 2.04233C108.197 2.04233 108.206 1.68186 108.206 1.24128V0.440236H109.494H110.782V12.5449V24.6497H109.494H108.206V14.4052V4.1562L107.82 3.91144C107.078 3.44861 106.159 3.03919 105.253 2.77662C102.677 2.02898 100.234 2.42505 98.8533 3.80908C98.3337 4.32976 97.7964 5.23762 97.6587 5.83395C97.5699 6.22558 97.4766 7.07558 97.4055 8.13919C97.3434 9.08264 97.3256 16.4033 97.3745 21.2675C97.3878 22.7227 97.3922 24.08 97.3833 24.2847L97.3611 24.6497H96.202H95.0385L95.0163 20.9203C94.9807 14.7033 94.9941 9.41641 95.0518 8.18369C95.1406 6.39023 95.2694 5.20647 95.4382 4.64128C95.5181 4.37427 95.5225 4.38317 94.9408 3.99599C93.5285 3.06589 91.7343 2.50961 89.9979 2.4651C89.2473 2.4473 88.7366 2.49181 88.0882 2.63867C86.0143 3.10594 84.713 4.34757 84.2423 6.31458C84.1624 6.63055 84.1579 7.31589 84.149 20.502L84.1357 34.3512H82.9455H81.7597L81.7375 28.7305Z" fill="#FCFCFC"/>
    <path d="M62.926 25.09C60.7099 24.9254 58.4539 24.1421 56.562 22.8827C56.26 22.678 56.0068 22.5133 56.0024 22.5133C55.998 22.5133 55.8159 22.6958 55.5983 22.9183C54.4747 24.0709 52.9869 24.7874 51.2283 25.0233C50.5843 25.1123 49.0611 25.09 48.386 24.9877C47.7243 24.8853 46.6585 24.6139 46.0944 24.4047C45.2729 24.0976 44.3091 23.6125 43.7363 23.2165L43.5453 23.0874V23.8929V24.694L42.2041 24.6851L40.8585 24.6717L40.8451 13.0031L40.8363 1.33009H42.1908H43.5453V11.2052V21.0848L43.8117 21.245C44.8465 21.8725 46.3298 22.4065 47.7865 22.6735C48.426 22.7892 50.1091 22.7937 50.6687 22.678C52.4096 22.322 53.6042 21.4497 54.3548 19.9945C54.6079 19.5005 54.7234 18.7885 54.8344 16.995C54.8966 15.9358 54.9099 9.83008 54.8611 4.77904C54.8389 3.01673 54.8389 1.52145 54.8522 1.45469L54.8788 1.33009H56.0868H57.2903L57.3125 4.61438C57.3436 9.43401 57.3392 15.4508 57.3036 16.5722C57.2415 18.3568 57.1127 19.7097 56.935 20.4128C56.8729 20.6487 56.824 20.8489 56.824 20.8534C56.824 20.9068 57.69 21.4141 58.1785 21.65C59.5952 22.3353 61.3494 22.7403 62.886 22.7358C65.7549 22.7269 67.7667 21.5209 68.4329 19.407C68.6905 18.5837 68.6816 18.9665 68.6816 9.77668V1.33009H69.9295H71.1819L71.1508 1.58375C71.0975 2.00653 71.0842 4.61883 71.1242 5.66909C71.1464 6.20757 71.1997 7.48925 71.2441 8.51726C71.3373 10.8091 71.3506 15.3395 71.2663 16.461C71.0353 19.4827 70.5779 21.3696 69.8007 22.4955C69.1967 23.3678 68.0421 24.1777 66.7231 24.6406C65.675 25.0099 64.1917 25.1879 62.926 25.09Z" fill="#FCFCFC"/>
    <path d="M115.135 23.9374V22.7803H115.903C117.409 22.7803 127.503 22.7225 127.512 22.7136C127.521 22.7091 127.161 22.1618 126.713 21.4987C125.887 20.2615 125.571 19.7942 123.728 17.0618C123.151 16.2073 122.289 14.9256 121.814 14.2136C121.334 13.506 120.642 12.4735 120.273 11.9217C119.9 11.3699 118.501 9.29605 117.164 7.30679L114.735 3.69762V2.51385V1.33009H123.306H131.877V2.5094V3.68872L128.516 3.69317C126.664 3.69762 125.132 3.70207 125.105 3.71098C125.083 3.71543 123.475 3.72433 121.543 3.72433C119.607 3.72878 118.021 3.74658 118.021 3.76883C118.021 3.78663 119.802 6.42563 121.978 9.62982C124.155 12.8385 126.206 15.8602 126.539 16.3497C126.872 16.8392 127.987 18.4858 129.022 20.0078L130.9 22.7803V23.9374V25.0945H123.018H115.135V23.9374Z" fill="#FCFCFC"/>
    <path d="M76.4211 24.6139L75.3419 24.605V12.9675V1.33009H76.4522H77.5625V12.9631C77.5625 19.3625 77.5491 24.605 77.5314 24.6139C77.5092 24.6228 77.0118 24.6228 76.4211 24.6139Z" fill="#FCFCFC"/>
    <path d="M0.15552 12.9675V1.33009H1.26578H2.37604V12.9675V24.605H1.26578H0.15552V12.9675Z" fill="#FCFCFC"/>
  </g>
  <g transform="translate(139.5828,44.8086) scale(1,-1)">
    <path d="M0 7.31667V0.173996H0.688361H1.37672V7.31667V14.4593H0.688361H0V7.31667Z" fill="#CEBC6A"/>
    <path d="M17.3871 14.4059C17.3737 14.3747 17.3693 11.1527 17.3737 7.24984L17.3871 0.151673H18.031H18.675L18.6972 1.28649L18.7194 2.42131L18.8704 2.15429C19.6786 0.712406 21.2818 -0.088641 23.156 0.00926476C25.4431 0.133872 27.1707 1.60691 27.7036 3.88989C27.8368 4.44618 27.9034 5.26947 27.8679 5.82576C27.6858 8.66947 25.9938 10.5564 23.4002 10.819C22.2189 10.9391 21.0731 10.6676 20.1583 10.0535C19.7452 9.77314 19.1946 9.19906 18.9281 8.76293L18.6972 8.38911V11.4242V14.4593H18.0532C17.578 14.4593 17.4004 14.4459 17.3871 14.4059ZM23.5468 9.56398C24.6482 9.32366 25.4653 8.69618 25.9982 7.69042C26.5312 6.68911 26.6599 5.26057 26.3313 4.04565C26.0426 2.98204 25.372 2.09644 24.4883 1.63361C23.8976 1.32209 23.5512 1.23754 22.774 1.21084C22.2011 1.18858 22.0635 1.19748 21.686 1.28649C21.0509 1.43335 20.4691 1.74487 20.0028 2.18989C19.3456 2.81293 18.9947 3.46267 18.7815 4.46843C18.6972 4.85115 18.7105 6.07497 18.7993 6.4755C19.1724 8.13544 20.3093 9.30141 21.8547 9.60403C22.2278 9.67968 23.1338 9.65743 23.5468 9.56398Z" fill="#CEBC6A"/>
    <path d="M8.23823 10.8238C7.38111 10.7437 6.3952 10.3655 5.73792 9.86258C4.61434 8.99033 3.96595 7.69975 3.81051 6.02201C3.67728 4.55342 4.0148 3.13824 4.76533 2.02122C5.00071 1.6741 5.58693 1.08667 5.94221 0.846351C7.5854 -0.261764 9.9125 -0.284015 11.498 0.792948C12.0353 1.15787 12.5638 1.7364 12.8391 2.26598L12.9457 2.46625L12.9591 1.32253L12.9679 0.174362H13.6341H14.3003V5.44792V10.7259L13.6341 10.717L12.9679 10.7126L12.9635 9.57331C12.9635 8.66991 12.9502 8.4474 12.9102 8.5097C12.515 9.12384 12.3906 9.29295 12.1463 9.53771C11.8044 9.87148 11.3025 10.2275 10.9162 10.41C10.1701 10.7571 9.17529 10.9084 8.23823 10.8238ZM9.85033 9.58666C11.0361 9.33745 11.9421 8.62986 12.4794 7.53954C12.8614 6.76075 13.0168 5.85735 12.928 4.94059C12.7636 3.3296 11.9776 2.12803 10.6897 1.53169C10.1656 1.29138 9.71265 1.19792 9.03318 1.19792C7.85186 1.19792 6.98585 1.56284 6.23088 2.37279C5.52919 3.12934 5.1517 4.1974 5.1517 5.44792C5.1517 6.44923 5.38264 7.30368 5.84895 8.02462C6.35079 8.80342 7.19902 9.3775 8.14941 9.57776C8.55798 9.66677 9.45507 9.67122 9.85033 9.58666Z" fill="#CEBC6A"/>
  </g>
</svg>
