<?xml version="1.0" encoding="UTF-8"?>
<svg id="Camada_1" data-name="Camada 1" xmlns="http://www.w3.org/2000/svg" viewBox="0 0 174 51">
  <defs>
    <style>
      .cls-1 {
        fill: #e0e0e0;
      }

      .cls-2 {
        fill: #cebc6a;
      }

      .cls-3 {
        fill: #fcfcfc;
      }
    </style>
  </defs>
  <path class="cls-1" d="M134.7,17.08c0-8.8-7.16-15.96-15.96-15.96-3.21,0-6.2.96-8.71,2.61-.29.07-.59.1-.96.1-.35,0-.61-.02-.88-.07-1.37-.63-2.89-1-4.49-1-5.93,0-10.75,4.82-10.75,10.75,0,3.07,1.3,5.84,3.37,7.8.5.58.64.82.68,1.09.01.09,0,.19,0,.29-2.86,2.89-4.62,6.85-4.62,11.22,0,8.8,7.16,15.96,15.96,15.96s15.9-7.1,15.96-15.85c.1-.66.28-1.1.62-1.62.3-.47.64-.8,1.27-1.22,5.06-2.68,8.52-7.99,8.52-14.11ZM93.45,13.52c0-5.65,4.6-10.25,10.25-10.25,1.44,0,2.81.3,4.06.84.17.21.22.44.17.72-.05.23-.19.56-.37.89-2.94,2.9-4.77,6.92-4.77,11.36,0,.17.02.33.03.5-.01.09-.02.16-.03.21-.11.5-.32.91-.68,1.3-.09.1-.17.18-.25.25-1.32.59-2.54,1.34-3.64,2.24-.01,0-.03.01-.04.02-.16.05-.43.07-.66.06-2.46-1.87-4.06-4.82-4.06-8.15ZM123.43,30.62c-.09.57-.35,1.04-.78,1.4-1.25.33-2.56.52-3.91.52-5.63,0-10.55-3.03-13.25-7.54,0-.19.05-.36.15-.51.16-.23.59-.51.97-.63,2.18-.62,4.08-1.9,5.46-3.62.35-.35.74-.57,1.19-.69.15-.04.38-.05.62-.04,4.79,1.85,8.44,6.01,9.55,11.12ZM121.36,32.82c.94-.16,1.6-.06,2.03.29.17.14.29.3.39.49,0,.1.02.2.02.31,0,8.53-6.94,15.46-15.46,15.46s-15.46-6.94-15.46-15.46c0-4.24,1.72-8.09,4.49-10.88.24-.11.48-.17.65-.15.06,0,.19.03.29.04.15.02.37.1.62.2,1.17.58,2.45.96,3.81,1.09.46.07.72.15,1.09.32.7.32,1.26.85,1.97,1.84.23.33.47.65.52.71s.19.22.31.36c1.05,1.22,2.07,2.13,3.38,3,.42.28.49.32,1.09.66,1.16.65,2.93,1.33,4.09,1.56,1.43.29,1.96.35,3.32.36.08,0,.17.01.25.01.08,0,.16-.01.23-.01,1.04,0,1.4-.04,2.39-.2ZM98.58,22.24c0-.13.06-.27.14-.42.9-.72,1.89-1.33,2.93-1.83.3-.02.57.02.8.13.35.17.65.53.87,1.06.13.47.27.93.44,1.39.02.09.03.18.04.27.04.46-.06.73-.31.93-1.77-.03-3.43-.52-4.87-1.34-.02-.06-.04-.12-.04-.17ZM108.33,18.45c1.14,0,2.25.13,3.32.37.13.1.23.2.29.32.05.09.06.23.06.37-1.54,2.12-3.86,3.63-6.55,4.1-.36-.09-.68-.27-.95-.53-.38-.89-.67-1.83-.87-2.79.09-.41.27-.78.56-1.07.09-.09.2-.18.31-.26,1.23-.32,2.51-.5,3.84-.5ZM113.94,13.52c0,1.4-.28,2.74-.8,3.96-.35.37-.78.62-1.28.74-.12.03-.26.04-.42.05-1.01-.2-2.04-.31-3.11-.31-1.4,0-2.74.2-4.03.54-.47-.01-.77-.16-.97-.47-.02-.31-.05-.62-.05-.94,0-4.53,1.97-8.6,5.09-11.43.54-.27,1.06-.32,1.63-.16.03,0,.06.02.09.03,2.35,1.88,3.86,4.76,3.86,8ZM124.62,30.98c-.32-.17-.6-.5-.81-.93,0,0,0-.01,0-.02-1.22-4.84-4.63-8.8-9.13-10.76-.52-.38-.77-.79-.88-1.36-.04-.24-.02-.51.03-.8.4-1.12.63-2.33.63-3.59,0-3.32-1.51-6.29-3.89-8.27-.05-.07-.09-.12-.11-.15-.16-.31-.17-.57-.04-.86.04-.09.1-.18.17-.27,2.37-1.48,5.16-2.35,8.15-2.35,8.52,0,15.46,6.93,15.46,15.46,0,6.22-3.71,11.59-9.02,14.03-.28,0-.36-.02-.56-.13Z"/>
  <path class="cls-3" d="M6.24,9.8c-.29.12-.57.4-.72.73-.11.24-.12.32-.13.74,0,.42.01.49.12.73.14.31.38.57.63.7.14.08.25.1.51.1.55,0,.9-.24,1.15-.78.1-.22.12-.3.12-.76,0-.56-.06-.77-.33-1.11-.3-.38-.91-.54-1.35-.36Z"/>
  <path class="cls-3" d="M11.96,11.68c0,1.09,0,6.15-.03,11.27-.01,5.11-.01,9.95,0,10.75.07,2.78.18,4.56.32,5.31.08.44.54,1.55.83,2.01,1.2,1.88,3.23,2.92,5.89,3.04,2.47.1,5.24-.69,7.35-2.1.23-.16.5-.35.6-.44l.18-.15.42.44c1.22,1.3,2.81,2.03,4.81,2.22,2.24.21,4.81-.44,6.81-1.74.22-.15.42-.26.43-.26.02,0,.03.36.03.8v.8h2.66v-24.21h-2.66v20.47l-.27.18c-.38.24-1.06.59-1.57.79-2.73,1.09-5.32,1.09-7.15,0-.46-.27-1.15-.92-1.42-1.34-.58-.89-.7-1.3-.82-2.72-.18-2.08-.19-3.9-.11-13.72l.03-3.66h-2.48v2.42c0,1.33-.01,4.62-.03,7.33-.02,5.3,0,6.29.16,8.3.07.91.16,1.46.28,1.9l.08.3-.14.1c-.69.52-1.86,1.08-2.86,1.38-2.57.77-5.16.57-6.81-.54-.89-.6-1.58-1.54-1.85-2.55-.24-.86-.23-.15-.23-14.79v-13.56h-2.47v1.97Z"/>
  <path class="cls-3" d="M81.47,9.79c-.3.09-.64.45-.78.8-.15.38-.15,1.01,0,1.38.26.67.94,1.01,1.57.8.95-.32,1.22-1.9.45-2.67-.35-.35-.75-.45-1.24-.3Z"/>
  <path class="cls-3" d="M87.13,15.34c-.04,11.02-.02,19.46.07,20.3,0,.1.03.5.04.89.03.82.14,2.14.2,2.48.12.62.62,1.78,1.03,2.39.3.44.98,1.12,1.42,1.42,2.43,1.67,6.28,1.66,9.64-.04.79-.4,1.31-.74,1.97-1.27l.18-.15.12.17c.07.1.33.38.58.62.91.89,2.01,1.46,3.33,1.74,2.38.49,5.19-.1,7.35-1.53.28-.18.51-.33.52-.33s.02.36.02.8v.8h2.58v-24.21h-2.58v20.49l-.39.24c-.74.46-1.66.87-2.57,1.13-2.58.75-5.02.35-6.4-1.03-.52-.52-1.06-1.43-1.19-2.02-.09-.39-.18-1.24-.25-2.31-.06-.94-.08-8.26-.03-13.13.01-1.46.02-2.81,0-3.02l-.02-.36h-2.32l-.02,3.73c-.04,6.22-.02,11.5.04,12.74.09,1.79.22,2.98.39,3.54.08.27.08.26-.5.65-1.41.93-3.21,1.49-4.94,1.53-.75.02-1.26-.03-1.91-.17-2.07-.47-3.38-1.71-3.85-3.68-.08-.32-.08-1-.09-14.19v-13.85h-2.39l-.02,5.62Z"/>
  <path class="cls-3" d="M68.32,18.98c-2.22.16-4.47.95-6.36,2.21-.3.2-.56.37-.56.37s-.19-.18-.4-.4c-1.12-1.15-2.61-1.87-4.37-2.1-.64-.09-2.17-.07-2.84.04-.66.1-1.73.37-2.29.58-.82.31-1.79.79-2.36,1.19l-.19.13v-1.61h-1.34s-1.35.02-1.35.02v11.67s-.02,11.67-.02,11.67h2.71v-19.75l.27-.16c1.03-.63,2.52-1.16,3.97-1.43.64-.12,2.32-.12,2.88,0,1.74.36,2.94,1.23,3.69,2.68.25.49.37,1.21.48,3,.06,1.06.08,7.16.03,12.22-.02,1.76-.02,3.26,0,3.32l.03.12h2.41l.02-3.28c.03-4.82.03-10.84,0-11.96-.06-1.78-.19-3.14-.37-3.84-.06-.24-.11-.44-.11-.44,0-.05.87-.56,1.35-.8,1.42-.69,3.17-1.09,4.71-1.09,2.87,0,4.88,1.21,5.55,3.33.26.82.25.44.25,9.63v8.45h2.5l-.03-.25c-.05-.42-.07-3.04-.03-4.09.02-.54.08-1.82.12-2.85.09-2.29.11-6.82.02-7.94-.23-3.02-.69-4.91-1.47-6.03-.6-.87-1.76-1.68-3.08-2.15-1.05-.37-2.53-.55-3.8-.45Z"/>
  <path class="cls-3" d="M120.52,20.13v1.16h.77c1.51,0,11.6.06,11.61.07,0,0-.35.55-.8,1.21-.83,1.24-1.14,1.7-2.98,4.44-.58.85-1.44,2.14-1.91,2.85-.48.71-1.17,1.74-1.54,2.29-.37.55-1.77,2.63-3.11,4.61l-2.43,3.61v2.37h17.14v-2.36h-3.36c-1.85,0-3.38-.01-3.41-.02-.02,0-1.63-.01-3.56-.01-1.94,0-3.52-.02-3.52-.04,0-.02,1.78-2.66,3.96-5.86,2.18-3.21,4.23-6.23,4.56-6.72.33-.49,1.45-2.14,2.48-3.66l1.88-2.77v-2.31h-15.77v1.16Z"/>
  <path class="cls-3" d="M81.81,19.45h-1.08v23.28h2.22v-11.63c0-6.4-.01-11.64-.03-11.65-.02,0-.52,0-1.11,0Z"/>
  <polygon class="cls-3" points="5.55 31.1 5.55 42.74 6.66 42.74 7.77 42.74 7.77 31.1 7.77 19.46 6.66 19.46 5.55 19.46 5.55 31.1"/>
  <polygon class="cls-2" points="140.73 36.8 140.73 43.94 141.42 43.94 142.11 43.94 142.11 36.8 142.11 29.65 141.42 29.65 140.73 29.65 140.73 36.8"/>
  <path class="cls-2" d="M164.28,34.55c1.1.24,1.92.87,2.45,1.87.53,1,.66,2.43.33,3.64-.29,1.06-.96,1.95-1.84,2.41-.59.31-.94.4-1.71.42-.57.02-.71.01-1.09-.08-.64-.15-1.22-.46-1.68-.9-.66-.62-1.01-1.27-1.22-2.28-.08-.38-.07-1.61.02-2.01.37-1.66,1.51-2.83,3.06-3.13.37-.08,1.28-.05,1.69.04ZM158.12,29.71s-.02,3.25-.01,7.16v7.1h1.3l.02-1.13.02-1.13.15.27c.81,1.44,2.41,2.24,4.29,2.15,2.29-.12,4.01-1.6,4.55-3.88.13-.56.2-1.38.16-1.94-.18-2.84-1.87-4.73-4.47-4.99-1.18-.12-2.33.15-3.24.77-.41.28-.96.85-1.23,1.29l-.23.37v-6.07h-.64c-.48,0-.65.01-.67.05Z"/>
  <path class="cls-2" d="M150.58,34.52c1.19.25,2.09.96,2.63,2.05.38.78.54,1.68.45,2.6-.16,1.61-.95,2.81-2.24,3.41-.52.24-.98.33-1.66.33-1.18,0-2.05-.36-2.8-1.17-.7-.76-1.08-1.82-1.08-3.08,0-1,.23-1.86.7-2.58.5-.78,1.35-1.35,2.3-1.55.41-.09,1.31-.09,1.7,0ZM148.97,33.29c-.86.08-1.84.46-2.5.96-1.12.87-1.77,2.16-1.93,3.84-.13,1.47.2,2.88.95,4,.24.35.82.93,1.18,1.17,1.64,1.11,3.97,1.13,5.56.05.54-.36,1.07-.94,1.34-1.47l.11-.2v1.14s.02,1.15.02,1.15h1.33v-10.55h-.67s-.67.01-.67.01v1.14c0,.9-.02,1.13-.06,1.06-.4-.61-.52-.78-.76-1.03-.34-.33-.84-.69-1.23-.87-.75-.35-1.74-.5-2.68-.41Z"/>
</svg>