<svg preserveAspectRatio="none" width="100%" height="100%" overflow="visible" style="display: block;" viewBox="0 0 41.8257 48.3794" fill="none" xmlns="http://www.w3.org/2000/svg">
<g id="Group">
<path id="Vector" d="M24.8387 48.337C22.6404 48.159 20.4865 47.5271 18.5546 46.4946C17.7197 46.0451 17.2623 45.925 16.4451 45.9205C15.7701 45.9161 15.4148 45.9828 14.7175 46.2365C14.158 46.4367 13.4074 46.6326 12.7146 46.7483C11.8975 46.8862 10.2721 46.8862 9.45047 46.7483C8.11816 46.5168 7.03454 46.1519 5.99534 45.5778C3.77038 44.3496 2.09166 42.4449 1.14572 40.0729C0.883701 39.4053 0.639444 38.4708 0.497331 37.5718C0.417392 37.0689 0.417392 35.3556 0.49289 34.8794C0.612798 34.1629 0.732706 33.5888 0.865937 33.1483C1.32336 31.5907 2.08722 30.2378 3.19304 29.0095C4.12122 27.9815 4.32551 27.6922 4.38324 27.3451C4.43209 27.0203 4.28998 26.6687 3.96134 26.3082C2.3981 24.6127 1.08799 22.1161 0.484008 19.704C-0.532991 15.6142 0.0621087 11.4265 2.18049 7.79958C4.4765 3.8611 8.45568 1.07079 12.9589 0.238587C14.3401 -0.015078 16.3119 -0.0729314 17.6442 0.0961785C19.8292 0.380995 21.7966 1.01293 23.462 1.96974C23.644 2.07209 23.875 2.2056 23.9771 2.26346C24.0748 2.31686 24.4301 2.55272 24.7632 2.77969C27.9474 4.97366 30.279 8.36921 31.1627 12.1163C31.3848 13.0642 31.4869 13.7718 31.5891 15.0535C31.6779 16.1305 31.8422 16.6734 32.2863 17.3498C32.6727 17.9506 33.1079 18.3155 34.1649 18.9475C35.3107 19.6284 36.3676 20.465 37.3402 21.4663C39.7961 23.9941 41.2172 26.9402 41.7413 30.5849C41.8035 31.0166 41.8257 31.426 41.8257 32.4318C41.8257 33.1438 41.8123 33.8648 41.7946 34.0339C41.7502 34.47 41.5992 35.4357 41.5148 35.8362C41.3549 36.5928 40.9241 37.9901 40.6621 38.5954C40.6044 38.7289 40.5111 38.9425 40.4578 39.0627C39.5296 41.1899 37.8509 43.3572 35.959 44.8792C35.4927 45.253 34.3425 46.0718 34.2848 46.0718C34.2715 46.0718 34.1293 46.1519 33.9695 46.2498C33.663 46.4367 32.5572 46.9975 32.3218 47.0865C32.2508 47.1132 32.042 47.1933 31.8644 47.2689C31.5402 47.4069 30.5232 47.7451 30.0791 47.8697C29.7594 47.9543 28.6002 48.1812 28.1473 48.248C27.2058 48.3815 25.8335 48.4171 24.8387 48.337ZM27.2013 48.2079C28.1517 48.1456 29.2842 47.9543 30.2345 47.6873C33.6497 46.7394 36.7806 44.5498 38.7791 41.7106C38.979 41.4302 39.1566 41.181 39.1744 41.1543C39.3209 40.9585 39.8538 40.0106 40.1025 39.5032C40.8309 38.0391 41.3238 36.4504 41.5548 34.8349C41.5947 34.5679 41.6391 34.2742 41.648 34.1896C41.6613 34.1051 41.6836 33.5443 41.6969 32.9436C41.7368 31.2569 41.6036 30.0286 41.2039 28.5155C40.2447 24.8485 37.9309 21.5998 34.7644 19.4726C33.8673 18.8674 33.2811 18.636 32.6327 18.636C32.273 18.636 32.2108 18.6493 31.9976 18.7695C31.6734 18.943 31.3981 19.2679 31.1849 19.704C31.0917 19.9043 31.0117 20.0912 31.0117 20.1179C31.0117 20.2203 30.5587 21.5286 30.3678 21.9737C29.2486 24.5949 27.5122 26.82 25.2606 28.5155C24.4878 29.0941 23.8128 29.508 22.7159 30.0731C21.7255 30.5849 21.3081 31.0655 21.1704 31.8443C21.1038 32.2271 21.1482 32.6498 21.3125 33.1883C21.4191 33.5443 21.4413 33.6467 21.5656 34.3009C21.801 35.5203 21.7744 37.2559 21.5035 38.4396C21.2903 39.3519 21.0327 40.0907 20.6375 40.9006C20.1223 41.9642 19.5405 42.7786 18.5768 43.7755C18.2215 44.1449 17.8884 44.5409 17.8307 44.6477C17.6664 44.9593 17.6575 45.2129 17.7907 45.5066C18.0439 46.0629 18.7811 46.548 20.26 47.1399C22.4672 48.021 24.7232 48.3682 27.2013 48.2079ZM12.1417 46.6949C13.0211 46.6059 13.9626 46.3833 14.4422 46.1475C15.1439 45.8093 15.4059 45.4354 15.2993 44.9237C15.2061 44.4608 14.7442 43.6197 14.3534 43.1881C14.0736 42.881 13.3675 41.9954 13.1054 41.6216C12.1862 40.3132 11.369 38.6176 10.9293 37.1268C10.4986 35.6627 10.3564 34.8082 10.2721 33.2239C10.2454 32.7166 10.1921 32.147 10.1566 31.9645C10.05 31.4616 9.83684 31.0522 9.47268 30.6606C9.08186 30.2378 8.87758 30.0909 8.17145 29.6993C7.64297 29.4056 7.20774 29.1297 6.52382 28.658C6.15078 28.3998 5.84434 28.2396 5.54679 28.1506C5.28033 28.0661 4.66747 28.0616 4.50315 28.1373C4.08569 28.3286 3.95246 28.4221 3.5883 28.7826C2.32704 30.0242 1.33225 31.782 0.87926 33.5666C0.639444 34.5145 0.57727 35.0619 0.57727 36.2367C0.581711 37.4294 0.630562 37.8255 0.901466 38.8802C1.25675 40.2731 1.9762 41.6928 2.91326 42.8587C3.24189 43.2682 4.01019 44.0425 4.43653 44.3852C5.98202 45.6446 7.81173 46.4189 9.82796 46.6726C10.4053 46.7438 11.5333 46.7527 12.1417 46.6949ZM17.3777 44.265C18.2126 44.0336 19.0076 43.2993 19.9091 41.942C20.1489 41.5771 20.7529 40.4467 20.7529 40.3621C20.7529 40.3443 20.7929 40.2464 20.8373 40.1396C21.0727 39.6234 21.3569 38.6087 21.4946 37.7943C21.5523 37.4383 21.5701 37.0645 21.5745 36.2145C21.5745 35.0886 21.5568 34.9017 21.3702 33.9938C21.0949 32.6632 20.3355 31.7865 19.243 31.5373C18.8744 31.4572 18.3592 31.4661 17.3999 31.5818C17.0136 31.6307 16.4273 31.6574 15.8456 31.6619C14.7042 31.6619 13.9892 31.5951 12.6791 31.3593C11.2535 31.1011 10.7339 31.3148 10.4897 32.2627C10.3254 32.9169 10.4275 34.5501 10.7162 35.7695C11.0892 37.3582 11.4267 38.3373 12.0263 39.5344C12.8923 41.2655 14.1757 42.9967 15.1439 43.7265C15.9211 44.314 16.6005 44.4786 17.3777 44.265ZM17.2667 31.4705C18.3148 31.3815 19.0875 31.0566 19.314 30.6161C19.3984 30.4603 19.4028 30.1577 19.3273 29.9218C19.0431 29.0407 17.5865 27.7011 16.001 26.8556C15.4725 26.5752 14.6376 26.2326 14.3401 26.1703C13.9581 26.0946 13.1188 26.0768 12.8479 26.1391C12.3194 26.2593 11.8575 26.5841 11.5422 27.0603C10.7339 28.2841 10.7384 29.7127 11.56 30.5404C12.2483 31.2302 13.3897 31.5017 15.6901 31.515C16.263 31.515 16.9736 31.4972 17.2667 31.4705ZM22.1518 30.1176C22.6093 29.9841 23.0401 29.7883 23.6396 29.4367C25.718 28.2218 27.5033 26.5485 28.8223 24.5771C29.3152 23.8339 29.8615 22.8459 30.1235 22.2184C30.199 22.036 30.2878 21.8268 30.3234 21.7511C30.4832 21.3996 30.7053 20.7053 30.7719 20.3582C31.1494 18.409 30.1813 17.2386 27.9519 16.936C27.148 16.8247 24.8564 16.8292 24.1059 16.936C22.4627 17.1763 21.1881 17.5278 19.8869 18.093C18.0661 18.8852 16.5606 19.8909 15.1616 21.2616C13.2032 23.1752 12.497 24.497 13.0166 25.2669C13.1809 25.5027 13.6206 25.7875 14.0159 25.9077C15.8633 26.4773 17.4799 27.4519 18.7056 28.7425C18.9143 28.9606 19.203 29.2676 19.3496 29.4189C19.7315 29.8284 20.1489 30.082 20.6419 30.2111C20.9794 30.3045 21.6678 30.26 22.1518 30.1176ZM9.84128 29.6326C10.312 29.4056 10.6762 28.8493 10.9116 28.0038C10.9782 27.7723 11.0581 27.5053 11.0981 27.4119C11.1336 27.3184 11.1736 27.0959 11.1869 26.9223C11.2358 26.3527 11.0848 26.0545 10.6629 25.8632C10.4541 25.7742 10.3609 25.7608 9.85016 25.7608C9.37941 25.7608 9.17957 25.7831 8.76211 25.881C8.14925 26.0278 7.28768 26.3171 6.91908 26.4996C6.32398 26.7933 5.96425 27.176 5.96425 27.5098C5.96425 27.9059 6.38171 28.4265 7.04343 28.8627C7.55415 29.1964 8.06487 29.508 8.21586 29.5658C8.83761 29.8195 9.41494 29.8462 9.84128 29.6326ZM5.67558 26.8244C5.88431 26.7933 6.1863 26.6865 6.586 26.4996C7.65185 26.0056 8.63332 25.7252 9.82796 25.5739C10.4808 25.4938 10.7517 25.4226 11.1958 25.2179C11.8975 24.8975 12.4571 24.3724 13.1676 23.3755C13.3986 23.0462 13.6339 22.7258 13.6872 22.6635C13.7405 22.6011 13.8782 22.4409 13.9937 22.3074C15.0417 21.0836 16.0632 20.1758 17.3733 19.308C17.7952 19.0276 17.8618 18.9875 18.4658 18.6449C19.6293 17.9951 21.3924 17.3187 22.5515 17.0828C24.0393 16.7802 24.5411 16.7268 26.0156 16.7268C27.3301 16.7224 27.6499 16.7491 28.7424 16.9315C29.6839 17.0873 30.3456 16.9938 30.7675 16.6422C31.145 16.3263 31.3093 15.9569 31.3937 15.2538C31.4514 14.7642 31.4247 14.1902 31.3226 13.6072C31.0828 12.2632 31.0695 12.1964 30.8652 11.471C29.4751 6.56241 25.5981 2.50822 20.7751 0.923927C19.6515 0.554555 18.8033 0.367644 17.5332 0.202985C16.7071 0.100629 14.7664 0.100629 13.9803 0.207435C12.0307 0.474451 10.4231 0.959529 8.81096 1.76503C7.2788 2.53047 5.96425 3.47838 4.74297 4.70665C3.50836 5.94382 2.63347 7.14094 1.85629 8.66738C0.941435 10.4564 0.412951 12.2587 0.190899 14.3637C0.133165 14.8933 0.133165 16.7046 0.190899 17.2831C0.390746 19.308 0.892583 21.0569 1.78079 22.837C2.57574 24.4258 3.77038 26.0946 4.44986 26.5574C4.76073 26.771 5.15154 26.9001 5.38692 26.8689C5.44909 26.86 5.57788 26.8422 5.67558 26.8244Z" fill="var(--fill-0, white)"/>
</g>
</svg>
